<?xml version="1.0"?><svg xmlns="http://www.w3.org/2000/svg" width="540" height="610" viewBox="0 0 540 610" fill="none" version="1.2" baseProfile="tiny-ps"><title>Company Name</title><g><path d="M504 135.951C522.564 146.669 534 166.477 534 187.913L534 422.631C534 444.067 522.564 463.874 504 474.592L300.728 591.951C282.164 602.669 259.292 602.669 240.728 591.951L37.4565 474.592C18.8925 463.874 7.45652 444.067 7.45652 422.631L7.45653 187.913C7.45653 166.477 18.8925 146.669 37.4565 135.951L240.728 18.5922C259.292 7.87426 282.164 7.87426 300.728 18.5922L504 135.951Z" fill="#0075FF" fill-opacity="0.5"/><path d="M532.75 187.913L532.75 422.631C532.75 443.62 521.552 463.015 503.375 473.51L300.103 590.869C281.926 601.363 259.531 601.363 241.353 590.869L38.0815 473.51C19.9042 463.015 8.70654 443.62 8.7065 422.631L8.70653 187.913C8.70652 166.923 19.9042 147.528 38.0815 137.034L241.353 19.6748C259.531 9.18008 281.926 9.18008 300.103 19.6748L503.375 137.034C521.552 147.528 532.75 166.923 532.75 187.913Z" stroke="url(#paint0_linear_1034_50707)" stroke-opacity="0.75" stroke-width="2.5"/></g><g><path d="M478 157.238C492.851 165.813 502 181.659 502 198.808L502 411.382C502 428.531 492.851 444.377 478 452.951L293.905 559.238C279.054 567.813 260.756 567.813 245.905 559.238L61.8104 452.951C46.9591 444.377 37.8104 428.531 37.8104 411.382L37.8104 198.808C37.8104 181.659 46.9591 165.813 61.8104 157.238L245.905 50.9512C260.756 42.3768 279.054 42.3768 293.905 50.9512L478 157.238Z" fill="#0075FF" fill-opacity="0.5"/><path d="M501 198.808L501 411.382C501 428.173 492.042 443.689 477.5 452.085L293.405 558.372C278.863 566.768 260.947 566.768 246.405 558.372L62.3103 452.085C47.7685 443.689 38.8104 428.173 38.8103 411.382L38.8104 198.808C38.8104 182.016 47.7685 166.5 62.3104 158.104L246.405 51.8172C260.947 43.4215 278.863 43.4215 293.405 51.8172L477.5 158.104C492.042 166.5 501 182.016 501 198.808Z" stroke="url(#paint1_linear_1034_50707)" stroke-opacity="0.75" stroke-width="2"/></g><g><path d="M450.7 175.867C463.621 183.327 471.58 197.113 471.58 212.033L471.58 396.972C471.58 411.892 463.621 425.678 450.7 433.138L290.537 525.607C277.617 533.067 261.698 533.067 248.777 525.607L88.615 433.138C75.6944 425.678 67.735 411.892 67.735 396.972L67.735 212.033C67.735 197.113 75.6944 183.327 88.615 175.867L248.778 83.3975C261.698 75.9378 277.617 75.9379 290.538 83.3976L450.7 175.867Z" fill="#0075FF" fill-opacity="0.5"/><path d="M470.71 212.033L470.71 396.972C470.71 411.581 462.916 425.08 450.265 432.384L290.102 524.854C277.451 532.158 261.864 532.158 249.212 524.854L89.05 432.384C76.3986 425.08 68.605 411.581 68.605 396.972L68.605 212.033C68.605 197.424 76.3986 183.925 89.05 176.621L249.213 84.151C261.864 76.8467 277.451 76.8467 290.103 84.151L450.265 176.621C462.916 183.925 470.71 197.424 470.71 212.033Z" stroke="url(#paint2_linear_1034_50707)" stroke-opacity="0.75" stroke-width="1.74"/></g><g><path d="M422.12 193.15C435.041 200.61 443 214.396 443 229.315L443 381.095C443 396.014 435.041 409.8 422.12 417.26L290.675 493.15C277.754 500.61 261.836 500.61 248.915 493.15L117.47 417.26C104.549 409.8 96.5898 396.014 96.5898 381.095L96.5898 229.315C96.5898 214.396 104.549 200.61 117.47 193.15L248.915 117.26C261.836 109.8 277.754 109.8 290.675 117.26L422.12 193.15Z" fill="#0B69D7"/><path d="M442.13 229.315L442.13 381.095C442.13 395.703 434.336 409.202 421.685 416.507L290.24 492.397C277.589 499.701 262.001 499.701 249.35 492.397L117.905 416.507C105.253 409.202 97.4598 395.704 97.4598 381.095L97.4598 229.315C97.4598 214.707 105.253 201.208 117.905 193.903L249.35 118.014C262.001 110.709 277.589 110.709 290.24 118.014L421.685 193.903C434.336 201.208 442.13 214.707 442.13 229.315Z" stroke="url(#paint3_linear_1034_50707)" stroke-opacity="0.75" stroke-width="1.74"/></g><g><path fill-rule="evenodd" d="M289.14 269.262V279.119L289.165 280.656C289.406 287.878 291.361 293.975 294.989 298.898C296.579 301.054 298.49 302.986 300.718 304.688C303.75 307.005 307.37 308.897 311.57 310.355C311.807 310.438 312.054 310.479 312.301 310.479V364.52H195.408V269.262H289.14Z" fill="white" fill-opacity="0.8"/><path fill-rule="evenodd" d="M289.136 269.256V279.118L289.161 280.654C289.258 283.565 289.634 286.293 290.285 288.835L255.959 319.391L195.424 269.256L289.136 269.256Z" fill="white"/></g><path d="M339.107 255.18C337.118 254.895 335.189 254.361 333.316 253.574C329.809 252.1 326.501 249.741 323.378 246.482C322.474 245.538 321.006 245.537 320.101 246.48C314.342 252.476 307.973 255.424 300.889 255.424C299.61 255.424 298.573 256.505 298.573 257.837V272.32L298.598 273.856C298.839 281.079 300.794 287.175 304.422 292.098C306.012 294.255 307.922 296.186 310.151 297.889C313.183 300.205 316.803 302.097 321.003 303.556C321.478 303.721 321.992 303.721 322.468 303.556C337.295 298.408 344.898 287.85 344.898 272.32V257.837L344.851 257.351C344.635 256.251 343.701 255.424 342.581 255.424C341.403 255.424 340.245 255.343 339.107 255.18Z" fill="white"/><defs><linearGradient id="paint0_linear_1034_50707" x1="266.467" y1="-19.7208" x2="261.896" y2="691.526" gradientUnits="userSpaceOnUse"></linearGradient><linearGradient id="paint1_linear_1034_50707" x1="266.149" y1="18.5882" x2="262.119" y2="645.608" gradientUnits="userSpaceOnUse"></linearGradient><linearGradient id="paint2_linear_1034_50707" x1="266.389" y1="55.2418" x2="262.883" y2="600.749" gradientUnits="userSpaceOnUse"></linearGradient><linearGradient id="paint3_linear_1034_50707" x1="266.992" y1="91.3942" x2="263.984" y2="559.319" gradientUnits="userSpaceOnUse"></linearGradient></defs></svg>
